<svg xmlns="http://www.w3.org/2000/svg" width="655.359" height="655.359" viewBox="0 0 6.827 6.827" shape-rendering="geometricPrecision" text-rendering="geometricPrecision" image-rendering="optimizeQuality" fill-rule="evenodd" clip-rule="evenodd"><defs><style>.prefix__fil0,.prefix__fil2{fill:#5f5f5f;fill-rule:nonzero}.prefix__fil2{fill:#656666}</style></defs><g id="prefix__Layer_x0020_1"><path class="prefix__fil0" d="M3.173 3.124a.107.107 0 00-.205.058l.21.735a.107.107 0 00.205-.059l-.21-.734zM3.89 3.182a.107.107 0 00-.206-.058l-.21.734a.107.107 0 00.205.059l.21-.735z"/><path d="M2.941 3.826h.944c.06 0 .107.048.107.107v.253h.397c.057 0 .103.045.106.102l.209 1.565a.107.107 0 01-.106.12h-2.37a.107.107 0 01-.104-.13l.208-1.564a.107.107 0 01.107-.093h.396v-.253c0-.06.047-.107.106-.107z" fill="#767676" fill-rule="nonzero"/><path class="prefix__fil2" d="M1.892 5.76a.107.107 0 000 .213h3.043a.107.107 0 000-.213H1.892z"/><path d="M3.517.935l.276.856.907-.002a.107.107 0 01.058.196l-.73.528.282.862a.107.107 0 01-.172.113l-.725-.529-.733.535a.107.107 0 01-.161-.125l.28-.856-.735-.532a.107.107 0 01.072-.192l.897.002.279-.864a.107.107 0 01.205.008z" fill="#8b8b8b" fill-rule="nonzero"/><path fill="#bcbcbc" d="M3.413 1.308l-.224.696-.732-.001.593.429-.228.694.591-.431.591.431-.227-.694.592-.429-.731.001z"/><path fill="#6a6a6a" d="M3.413 2.003l-.069.215-.226-.001.183.133-.07.215.182-.134.183.134-.07-.215.183-.133-.226.001z"/><path class="prefix__fil2" d="M2.836 4.875a.107.107 0 000 .214H3.99a.107.107 0 000-.214H2.836zM3 5.191a.107.107 0 000 .214h.827a.107.107 0 000-.214H3z"/><path d="M3.374 3.826h-.432a.107.107 0 00-.107.107v.251h1.157v-.251a.107.107 0 00-.107-.107h-.511z" fill="#656666"/><path fill="none" d="M0 0h6.827v6.827H0z"/></g></svg>