<?xml version="1.0" encoding="UTF-8"?>
<!DOCTYPE svg PUBLIC "-//W3C//DTD SVG 1.1//EN" "http://www.w3.org/Graphics/SVG/1.1/DTD/svg11.dtd">
<!-- Creator: CorelDRAW -->
<svg xmlns="http://www.w3.org/2000/svg" xml:space="preserve" width="6.82666in" height="6.82666in" style="shape-rendering:geometricPrecision; text-rendering:geometricPrecision; image-rendering:optimizeQuality; fill-rule:evenodd; clip-rule:evenodd"
viewBox="0 0 6.82666 6.82666"
 xmlns:xlink="http://www.w3.org/1999/xlink">
 <defs>
  <style type="text/css">
   <![CDATA[
    .fil7 {fill:none}
    .fil6 {fill:#656666}
    .fil5 {fill:#6A6A6A}
    .fil4 {fill:#BCBCBC}
    .fil0 {fill:#5F5F5F;fill-rule:nonzero}
    .fil2 {fill:#656666;fill-rule:nonzero}
    .fil1 {fill:#767676;fill-rule:nonzero}
    .fil3 {fill:#8B8B8B;fill-rule:nonzero}
   ]]>
  </style>
 </defs>
 <g id="Layer_x0020_1">
  <metadata id="CorelCorpID_0Corel-Layer"/>
  <path class="fil0" d="M3.17289 3.12381c-0.0161063,-0.0566063 -0.0750591,-0.0894409 -0.131665,-0.0733346 -0.0566063,0.0161063 -0.0894409,0.0750591 -0.0733346,0.131665l0.209819 0.734362c0.0161063,0.0566063 0.0750591,0.0894409 0.131665,0.0733346 0.0566063,-0.0161063 0.0894409,-0.0750591 0.0733346,-0.131665l-0.209819 -0.734362z"/>
  <path class="fil0" d="M3.88918 3.18214c0.0161063,-0.0566063 -0.0167283,-0.115559 -0.0733346,-0.131665 -0.0566063,-0.0161063 -0.115559,0.0167283 -0.131665,0.0733346l-0.209823 0.734362c-0.0161063,0.0566063 0.0167283,0.115559 0.0733346,0.131665 0.0566063,0.0161063 0.115559,-0.0167283 0.131665,-0.0733346l0.209823 -0.734362z"/>
  <path class="fil1" d="M2.94124 3.82614l0.944181 0c0.0589094,0 0.106669,0.0477598 0.106669,0.106669l0 0.253543 0.396587 0c0.0571102,0 0.103744,0.0448937 0.106535,0.101311l0.208661 1.56495 0.000354331 -4.72441e-005c0.00778346,0.0583937 -0.0332402,0.112047 -0.0916339,0.119831 -0.00501969,0.000669291 -0.00999606,0.000968504 -0.0149213,0.000937008l-2.3695 0c-0.0589094,0 -0.106669,-0.0477598 -0.106669,-0.106669 0,-0.00785827 0.000858268,-0.0155157 0.00247244,-0.0228937l0.208283 -1.56485c0.00719291,-0.0539724 0.0535748,-0.0931024 0.106665,-0.0925709l0.39565 0 0 -0.253543c0,-0.0589094 0.0477598,-0.106669 0.106669,-0.106669z"/>
  <path class="fil2" d="M1.89215 5.75999c-0.0589094,0 -0.106669,0.0477598 -0.106669,0.106669 0,0.0589094 0.0477598,0.106669 0.106669,0.106669l3.04237 0c0.0589094,0 0.106669,-0.0477598 0.106669,-0.106669 0,-0.0589094 -0.0477598,-0.106669 -0.106669,-0.106669l-3.04237 0z"/>
  <path class="fil3" d="M3.51716 0.935484l0.276039 0.855161 0.907047 -0.00174409 0 -0.000413386c0.0589094,-0.000110236 0.10676,0.0475512 0.10687,0.106461 7.08661e-005,0.0377323 -0.0194567,0.0709252 -0.0489843,0.0899449l-0.730039 0.52826 0.281917 0.862012 0.000188976 -6.29921e-005c0.018311,0.0559882 -0.0122362,0.116228 -0.0682244,0.134539 -0.0373622,0.0122205 -0.0766102,0.00267323 -0.104035,-0.0216614l-0.72461 -0.528591 -0.732913 0.53465 0.000287402 0.000393701c-0.0475906,0.0347165 -0.114319,0.0242795 -0.149035,-0.023311 -0.0223898,-0.0306929 -0.0259961,-0.0693504 -0.0129646,-0.102244l0.279862 -0.855724 -0.734799 -0.531705 -9.05512e-005 0.000122047c-0.0477244,-0.0345315 -0.0584173,-0.101224 -0.0238858,-0.148949 0.0228819,-0.031622 0.059878,-0.0469764 0.096126,-0.0437008l0.897543 0.00172441 0.278358 -0.863413c0.0180945,-0.056063 0.0782165,-0.0868386 0.13428,-0.0687441 0.0368268,0.0118858 0.0627441,0.0419055 0.071063,0.0769961z"/>
  <polygon class="fil4" points="3.41322,1.30795 3.18873,2.00428 2.45727,2.00287 3.0497,2.43156 2.82247,3.12635 3.41333,2.69533 4.00419,3.12635 3.77695,2.43156 4.36938,2.00287 3.63798,2.00428 "/>
  <polygon class="fil5" points="3.41334,2.00281 3.344,2.21791 3.11775,2.21747 3.30084,2.34996 3.23067,2.56452 3.41333,2.43127 3.59599,2.56452 3.52581,2.34996 3.70891,2.21747 3.48277,2.21791 "/>
  <path class="fil2" d="M2.83633 4.87523c-0.0589094,0 -0.106669,0.0477598 -0.106669,0.106669 0,0.0589094 0.0477598,0.106669 0.106669,0.106669l1.154 0c0.0589094,0 0.106669,-0.0477598 0.106669,-0.106669 0,-0.0589094 -0.0477598,-0.106669 -0.106669,-0.106669l-1.154 0z"/>
  <path class="fil2" d="M2.99943 5.19129c-0.0589094,0 -0.106669,0.0477598 -0.106669,0.106669 0,0.0589094 0.0477598,0.106669 0.106669,0.106669l0.827799 0c0.0589094,0 0.106669,-0.0477598 0.106669,-0.106669 0,-0.0589094 -0.0477598,-0.106669 -0.106669,-0.106669l-0.827799 0z"/>
  <path class="fil6" d="M3.37356 3.82614l-0.221665 0 -0.210654 0c-0.0589094,0 -0.106669,0.0477598 -0.106669,0.106669l0 0.251386 1.15752 0 0 -0.251386c0,-0.0589094 -0.0477598,-0.106669 -0.106669,-0.106669l-0.18024 0 -0.221665 0 -0.109957 0z"/>
  <rect class="fil7" width="6.82666" height="6.82666"/>
 </g>
</svg>
