<svg width="53" height="57" viewBox="0 0 53 57" fill="none" xmlns="http://www.w3.org/2000/svg">
    <path
        d="M38.531 0.833984C38.8548 0.924988 39.1815 1.00877 39.5024 1.10988C42.3182 1.99247 44.0615 4.81503 43.5932 7.7257C43.1306 10.6003 40.5865 12.7468 37.6767 12.7179C34.7611 12.689 32.2603 10.5078 31.8426 7.62892C31.3901 4.51313 33.463 1.58079 36.5636 0.946656C36.6807 0.922099 36.7935 0.872986 36.9077 0.833984C37.4483 0.833984 37.9903 0.833984 38.531 0.833984Z"
        fill="#FD4C00" />
    <path
        d="M23.7476 36.6302C23.0133 37.871 22.2313 39.1003 21.5432 40.3801C20.6716 42.0009 19.3691 42.6928 17.5348 42.674C12.9915 42.6263 8.4468 42.661 3.90353 42.6567C2.04026 42.6552 0.65979 41.6585 0.210233 40.0089C-0.399776 37.7642 1.24378 35.5555 3.59853 35.5382C7.60117 35.5093 11.6038 35.5252 15.6065 35.5338C15.9404 35.5338 16.1586 35.4703 16.3408 35.1496C19.6062 29.4265 22.8861 23.712 26.1616 17.9961C26.2223 17.8907 26.2729 17.7795 26.3539 17.6206C26.1645 17.6076 26.0301 17.5902 25.8942 17.5902C23.9644 17.5888 22.0361 17.5975 20.1064 17.5816C19.7753 17.5787 19.5961 17.6798 19.4371 17.973C18.3472 19.9823 17.2515 21.9888 16.1268 23.9793C15.407 25.2519 13.9889 25.9409 12.6243 25.7502C11.1152 25.5379 9.97182 24.5527 9.59309 23.1184C9.35747 22.2271 9.44855 21.3589 9.88943 20.5515C11.4101 17.7723 12.9294 14.9916 14.4833 12.2326C15.1338 11.0784 16.189 10.4746 17.5116 10.4674C21.3163 10.4443 25.1209 10.4631 28.9255 10.4501C29.2319 10.4501 29.3562 10.5685 29.4892 10.8184C31.2224 14.0931 33.953 15.8034 37.6535 15.9522C37.96 15.9652 38.1363 16.0562 38.3011 16.3119C39.3448 17.9311 40.4043 19.5403 41.461 21.1524C41.5579 21.3012 41.6634 21.4456 41.7978 21.6377C42.5957 21.1972 43.3778 20.7653 44.1598 20.3334C45.3104 19.6978 46.4452 19.0304 47.616 18.4353C49.1483 17.6567 50.9985 18.1189 52.0234 19.4782C53.0425 20.8317 52.9702 22.75 51.8138 24.0038C51.5146 24.3288 51.1359 24.6019 50.7485 24.8185C48.0164 26.354 45.2772 27.8737 42.5336 29.386C40.6226 30.4405 38.7145 29.9566 37.5061 28.1279C36.5535 26.6848 35.6095 25.2374 34.6613 23.7915C34.6425 23.7612 34.615 23.7366 34.5341 23.6398C32.8862 26.4479 31.2542 29.2286 29.5976 32.0512C29.9605 32.3429 30.3059 32.6261 30.6558 32.902C32.5942 34.4302 34.5341 35.9585 36.4754 37.4839C38.1002 38.7594 38.5049 40.2545 37.7359 42.1656C36.1646 46.07 34.602 49.9789 33.0148 53.8776C32.0868 56.1584 29.4372 56.9052 27.5175 55.455C26.2469 54.4958 25.7771 52.8404 26.3857 51.2905C27.3658 48.7958 28.3776 46.3142 29.3765 43.8267C29.6237 43.2085 29.8882 42.5975 30.1079 41.9691C30.1556 41.8304 30.1079 41.5646 30.0038 41.4823C27.9758 39.8645 25.9318 38.2654 23.8907 36.6634C23.8662 36.6432 23.8242 36.6461 23.7476 36.6288V36.6302Z"
        fill="#FD4C00" />
</svg>