<svg width="57" height="51" viewBox="0 0 57 51" fill="none" xmlns="http://www.w3.org/2000/svg">
    <path
        d="M56.2779 15.7557V18.2431C56.2476 18.3442 56.1999 18.4439 56.1897 18.5479C55.9382 21.0455 55.0854 23.335 53.8119 25.4858C53.608 25.8311 53.384 25.9308 52.9995 25.9293C48.8104 25.9149 44.6212 25.912 40.4307 25.9336C39.9985 25.9351 39.7976 25.7834 39.6067 25.4266C37.8837 22.2039 36.1534 18.9856 34.3928 15.7846C34.1803 15.3989 33.8247 15.0132 33.4387 14.8196C32.6104 14.4036 31.7489 14.8298 31.2936 15.7875C29.2453 20.0921 27.2013 24.401 25.1559 28.7071C25.0605 28.9064 24.9593 29.1029 24.8307 29.3614C24.663 29.1087 24.5517 28.9469 24.4447 28.7808C23.1177 26.7007 21.7951 24.6177 20.4623 22.5405C19.6413 21.2607 18.2579 21.2708 17.4715 22.5622C16.8716 23.5459 16.2732 24.531 15.695 25.5277C15.5345 25.8051 15.364 25.9322 15.0228 25.9308C11.3208 25.9178 7.61886 25.9178 3.91689 25.9308C3.58153 25.9308 3.37627 25.8325 3.24039 25.5335C2.66941 24.2754 2.00159 23.0519 1.54336 21.7533C1.15885 20.6641 1.01862 19.4897 0.769989 18.3515C0.769989 17.4862 0.769989 16.6209 0.769989 15.7557C0.850938 15.2602 0.921776 14.7633 1.01284 14.2707C2.91804 3.92377 14.7829 -2.97661 25.2788 3.12352C26.4106 3.78076 27.4528 4.59113 28.5717 5.35383C28.9345 5.06782 29.3349 4.73414 29.7526 4.42357C33.2248 1.85236 37.067 0.487301 41.4397 0.917762C48.2408 1.58801 54.046 6.54987 55.7705 13.1671C55.9917 14.0165 56.1102 14.8919 56.2765 15.7542L56.2779 15.7557Z"
        fill="#FD4C00" />
    <path
        d="M6.07651 29.1636C7.71717 29.1636 9.23207 29.1636 10.747 29.1636C12.5712 29.1636 14.3955 29.1564 16.2197 29.1665C16.9367 29.1708 17.4657 28.879 17.8286 28.2651C18.203 27.6324 18.5904 27.007 19.0023 26.328C19.144 26.536 19.2539 26.6892 19.3565 26.8481C20.7239 28.9888 22.0986 31.1252 23.4516 33.2746C23.8506 33.9088 24.3189 34.3912 25.1284 34.345C25.9625 34.2974 26.3687 33.7441 26.6968 33.0479C28.6757 28.8472 30.6734 24.6567 32.6654 20.4619C32.7405 20.303 32.8258 20.1485 32.9371 19.9332C33.0629 20.1456 33.1655 20.3088 33.258 20.4792C34.6183 22.9985 35.9886 25.5104 37.3286 28.0412C37.7478 28.8328 38.3405 29.178 39.2396 29.1723C42.9054 29.1491 46.5727 29.1621 50.24 29.1621H50.9281C50.7228 29.3875 50.6014 29.5319 50.4684 29.6648C43.6065 36.4771 36.7446 43.2894 29.8813 50.0988C28.9634 51.0088 28.0773 51.0247 27.197 50.1522C20.2816 43.2923 13.3677 36.4294 6.45379 29.5681C6.35405 29.4684 6.26298 29.3615 6.0794 29.1636H6.07651Z"
        fill="#FD4C00" />
</svg>