<svg width="46" height="52" viewBox="0 0 46 52" fill="none" xmlns="http://www.w3.org/2000/svg">
    <g clip-path="url(#clip0_53_1367)">
        <path
            d="M0.457703 28.874C0.457703 41.204 10.4877 51.224 22.8077 51.224C35.1277 51.224 45.1577 41.194 45.1577 28.874C45.1577 21.464 41.5177 14.904 35.9477 10.834L38.0277 8.03399C38.5377 7.34399 38.3977 6.37399 37.7077 5.86399C37.0177 5.35399 36.0477 5.50399 35.5377 6.18399L33.3277 9.16399C31.3777 8.12399 29.2577 7.36399 27.0277 6.93399C27.0277 6.89399 27.0477 6.86399 27.0477 6.82399V3.94399H28.4477C29.3077 3.94399 29.9977 3.24399 29.9977 2.39399C29.9977 1.54399 29.2977 0.843994 28.4477 0.843994H16.1577C15.2977 0.843994 14.6077 1.54399 14.6077 2.39399C14.6077 3.24399 15.3077 3.94399 16.1577 3.94399H17.5577V6.82399C17.5577 6.94399 17.5977 7.04399 17.6277 7.15399C15.7377 7.60399 13.9377 8.27399 12.2677 9.17399L10.0477 6.18399C9.5377 5.49399 8.5677 5.35399 7.8777 5.86399C7.1877 6.37399 7.0477 7.34399 7.5577 8.03399L9.6477 10.854C4.0877 14.914 0.457703 21.474 0.457703 28.874ZM20.6677 3.94399C20.6677 3.94399 20.7177 3.94399 20.7477 3.94399H23.8677C23.8677 3.94399 23.9177 3.94399 23.9477 3.94399V6.57399C23.5677 6.55399 23.1977 6.51399 22.8177 6.51399C22.0977 6.51399 21.3777 6.55399 20.6777 6.62399V3.94399H20.6677ZM22.8077 9.62399C33.4177 9.62399 42.0577 18.254 42.0577 28.874C42.0577 39.494 33.4277 48.124 22.8077 48.124C12.1877 48.124 3.5677 39.484 3.5677 28.874C3.5677 18.264 12.1977 9.62399 22.8077 9.62399Z"
            fill="#FD4C00" />
        <path
            d="M23.7677 30.644L29.1877 36.064C29.4877 36.364 29.8877 36.524 30.2877 36.524C30.6877 36.524 31.0777 36.374 31.3877 36.064C31.9977 35.454 31.9977 34.474 31.3877 33.864L25.9677 28.444C26.2877 27.354 26.0277 26.124 25.1577 25.264C23.8977 24.004 21.8477 24.004 20.5877 25.264C19.3277 26.524 19.3277 28.574 20.5877 29.834C21.4477 30.694 22.6777 30.954 23.7677 30.644Z"
            fill="#FD4C00" />
    </g>
    <defs>
        <clipPath id="clip0_53_1367">
            <rect width="44.7" height="50.39" fill="white" transform="translate(0.457703 0.833984)" />
        </clipPath>
    </defs>
</svg>